<svg xmlns="http://www.w3.org/2000/svg" style="display:none">
  <symbol id="icon-menu" viewBox="0 0 24 24"><path d="M4 5h16v2H4zM4 11h16v2H4zM4 17h16v2H4z" fill="currentColor"/></symbol>
  <symbol id="icon-location" viewBox="0 0 24 24"><path d="M12 2a7 7 0 0 0-7 7c0 5.2 7 13 7 13s7-7.8 7-13a7 7 0 0 0-7-7zm0 9.5A2.5 2.5 0 1 1 12 6a2.5 2.5 0 0 1 0 5.5z" fill="currentColor"/></symbol>
  <symbol id="icon-leaf" viewBox="0 0 24 24"><path d="M19 3C10 3 5 8 5 15a6 6 0 0 0 11.2 3H21V3h-2zm-5.2 12.8A3.5 3.5 0 0 1 8.2 13c0-3.6 2.6-6 8.8-6.8-1 4.8-1.8 7.5-3.2 9.6z" fill="currentColor"/></symbol>
  <symbol id="icon-warning" viewBox="0 0 24 24"><path d="M12 3 1.8 21h20.4L12 3zm1 13h-2v-6h2v6zm0 3h-2v-2h2v2z" fill="currentColor"/></symbol>
  <symbol id="icon-mail" viewBox="0 0 24 24"><path d="M2 5h20v14H2V5zm10 7L4 7v10h16V7l-8 5z" fill="currentColor"/></symbol>
  <symbol id="icon-user" viewBox="0 0 24 24"><path d="M12 12a5 5 0 1 0-5-5 5 5 0 0 0 5 5zm0 2c-5 0-9 2.4-9 6v1h18v-1c0-3.6-4-6-9-6z" fill="currentColor"/></symbol>
  <symbol id="icon-store" viewBox="0 0 24 24"><path d="M3 4h18l-1 5H4L3 4zm2 7h14v9H5v-9zm3 2v5h2v-5H8zm4 0v5h2v-5h-2z" fill="currentColor"/></symbol>
  <symbol id="icon-search" viewBox="0 0 24 24"><path d="M10 2a8 8 0 1 0 4.9 14.3L21 22l1-1-6.1-5.8A8 8 0 0 0 10 2zm0 2a6 6 0 1 1 0 12 6 6 0 0 1 0-12z" fill="currentColor"/></symbol>
  <symbol id="icon-chevron-left" viewBox="0 0 24 24"><path d="M15.5 4 7.5 12l8 8 1.5-1.5-6.5-6.5L17 5.5 15.5 4z" fill="currentColor"/></symbol>
  <symbol id="icon-chevron-right" viewBox="0 0 24 24"><path d="m8.5 4-1.5 1.5 6.5 6.5-6.5 6.5L8.5 20l8-8-8-8z" fill="currentColor"/></symbol>
  <symbol id="icon-fire" viewBox="0 0 24 24"><path d="M13 2c1 4-1 5-1 7a4 4 0 0 0 8 0c2 2 3 4.5 3 7a8 8 0 0 1-16 0c0-3.5 2.2-6.2 6-9.5z" fill="currentColor"/></symbol>
  <symbol id="icon-message" viewBox="0 0 24 24"><path d="M3 4h18v12H8l-5 4V4z" fill="currentColor"/></symbol>
  <symbol id="icon-globe" viewBox="0 0 24 24"><path d="M12 2a10 10 0 1 0 0 20 10 10 0 0 0 0-20zm7.9 9h-3.2a15 15 0 0 0-1.5-6A8.1 8.1 0 0 1 19.9 11zM12 4c1.2 1.5 2.1 4 2.5 7h-5C9.9 8 10.8 5.5 12 4zm-3.2 1a15 15 0 0 0-1.5 6H4.1A8.1 8.1 0 0 1 8.8 5zM4.1 13h3.2a15 15 0 0 0 1.5 6A8.1 8.1 0 0 1 4.1 13zM12 20c-1.2-1.5-2.1-4-2.5-7h5c-.4 3-1.3 5.5-2.5 7zm3.2-1a15 15 0 0 0 1.5-6h3.2a8.1 8.1 0 0 1-4.7 6z" fill="currentColor"/></symbol>
  <symbol id="icon-bolt" viewBox="0 0 24 24"><path d="M13 2 4 14h6l-1 8 9-12h-6l1-8z" fill="currentColor"/></symbol>
  <symbol id="icon-download" viewBox="0 0 24 24"><path d="M11 3h2v9h4l-5 6-5-6h4V3zm-7 16h16v2H4z" fill="currentColor"/></symbol>
  <symbol id="icon-rocket" viewBox="0 0 24 24"><path d="M14 3c4 0 7 3 7 7l-5 5-5-5 3-7zm-6 8 3 3-5 5-3-3 5-5zm9 4 2 2-4 4-2-2 4-4z" fill="currentColor"/></symbol>
  <symbol id="icon-money" viewBox="0 0 24 24"><path d="M2 6h20v12H2V6zm10 2a4 4 0 1 0 0 8 4 4 0 0 0 0-8zM4 8h2v2H4zm14 8h2v-2h-2z" fill="currentColor"/></symbol>
  <symbol id="icon-check" viewBox="0 0 24 24"><path d="m9 16.2-3.5-3.5L4 14.2 9 19l11-11-1.5-1.5z" fill="currentColor"/></symbol>
  <symbol id="icon-phone" viewBox="0 0 24 24"><path d="M7 2h4l1 5-2 1c1 2 3 4 5 5l1-2 5 1v4c0 1.1-.9 2-2 2A17 17 0 0 1 3 5c0-1.1.9-2 2-2h2z" fill="currentColor"/></symbol>
  <symbol id="icon-doc" viewBox="0 0 24 24"><path d="M6 2h8l4 4v16H6V2zm8 1.5V7h3.5L14 3.5zM8 11h8v2H8zm0 4h8v2H8z" fill="currentColor"/></symbol>
  <symbol id="icon-star" viewBox="0 0 24 24"><path d="m12 2 2.8 5.7L21 8.6l-4.5 4.4 1.1 6.2L12 16.5l-5.6 2.7 1.1-6.2L3 8.6l6.2-.9L12 2z" fill="currentColor"/></symbol>
  <symbol id="icon-smile" viewBox="0 0 24 24"><path d="M12 2a10 10 0 1 0 0 20 10 10 0 0 0 0-20zm-4 8a1.2 1.2 0 1 1 0-2.4A1.2 1.2 0 0 1 8 10zm8 0a1.2 1.2 0 1 1 0-2.4A1.2 1.2 0 0 1 16 10zm-8.5 3h9a4.5 4.5 0 0 1-9 0z" fill="currentColor"/></symbol>
  <symbol id="icon-pizza" viewBox="0 0 24 24"><path d="M12 2 3 22l18-9A18 18 0 0 0 12 2zm-1 5a1.5 1.5 0 1 1 0 3 1.5 1.5 0 0 1 0-3zm5 3a1.5 1.5 0 1 1 0 3 1.5 1.5 0 0 1 0-3z" fill="currentColor"/></symbol>
  <symbol id="icon-burger" viewBox="0 0 24 24"><path d="M4 10a8 8 0 0 1 16 0H4zm-1 2h18v3H3v-3zm2 5h14v3H5v-3z" fill="currentColor"/></symbol>
  <symbol id="icon-bowl" viewBox="0 0 24 24"><path d="M4 10h16a8 8 0 0 1-16 0zm2 7h12v2H6z" fill="currentColor"/></symbol>
  <symbol id="icon-season-winter" viewBox="0 0 24 24"><path d="M11 2h2v20h-2zM2 11h20v2H2zM4.9 5l1.4-1.4 12.8 12.8-1.4 1.4zM18.7 3.6 20.1 5 7.3 17.8l-1.4-1.4z" fill="currentColor"/></symbol>
  <symbol id="icon-season-spring" viewBox="0 0 24 24"><path d="M12 22s-7-4.2-7-10a4 4 0 0 1 7-2.7A4 4 0 0 1 19 12c0 5.8-7 10-7 10z" fill="currentColor"/></symbol>
  <symbol id="icon-season-summer" viewBox="0 0 24 24"><path d="M12 5a7 7 0 1 0 7 7 7 7 0 0 0-7-7zm0-5h2v4h-2zm0 20h2v4h-2zM0 11h4v2H0zm20 0h4v2h-4z" fill="currentColor"/></symbol>
  <symbol id="icon-season-autumn" viewBox="0 0 24 24"><path d="M20 3c-7 0-12 5-12 12a6 6 0 0 0 10.2 4.2C20 17 21 13.5 21 9V3h-1z" fill="currentColor"/></symbol>
  <symbol id="icon-tag" viewBox="0 0 24 24"><path d="M2 11V2h9l11 11-9 9L2 11zm5-5a2 2 0 1 0 0 4 2 2 0 0 0 0-4z" fill="currentColor"/></symbol>
  <symbol id="icon-note" viewBox="0 0 24 24"><path d="M5 2h14v20H5V2zm3 4h8v2H8zm0 4h8v2H8zm0 4h6v2H8z" fill="currentColor"/></symbol>
  <symbol id="icon-table" viewBox="0 0 24 24"><path d="M3 3h18v18H3V3zm2 2v4h4V5H5zm6 0v4h8V5h-8zM5 11v8h4v-8H5zm6 0v8h8v-8h-8z" fill="currentColor"/></symbol>
  <symbol id="icon-refresh" viewBox="0 0 24 24"><path d="M12 4a8 8 0 0 1 7.5 5H17l4 4 4-4h-3.3A10 10 0 1 0 22 15h-2a8 8 0 1 1-8-11z" fill="currentColor"/></symbol>
  <symbol id="icon-bell" viewBox="0 0 24 24"><path d="M12 22a2.5 2.5 0 0 0 2.5-2h-5A2.5 2.5 0 0 0 12 22zm7-4H5l2-3V10a5 5 0 1 1 10 0v5l2 3z" fill="currentColor"/></symbol>
  <symbol id="icon-sad" viewBox="0 0 24 24"><path d="M12 2a10 10 0 1 0 0 20 10 10 0 0 0 0-20zm-4 8a1.2 1.2 0 1 1 0-2.4A1.2 1.2 0 0 1 8 10zm8 0a1.2 1.2 0 1 1 0-2.4A1.2 1.2 0 0 1 16 10zm1.5 7h-11a4.5 4.5 0 0 1 9-1h-2.2a2.3 2.3 0 0 0-4.6 0H6.5A4.5 4.5 0 0 1 17.5 17z" fill="currentColor"/></symbol>
  <symbol id="icon-lock" viewBox="0 0 24 24"><path d="M7 10V7a5 5 0 1 1 10 0v3h2v12H5V10h2zm2 0h6V7a3 3 0 1 0-6 0v3z" fill="currentColor"/></symbol>
  <symbol id="icon-home" viewBox="0 0 24 24"><path d="M12 3 2 11h3v10h6v-6h2v6h6V11h3L12 3z" fill="currentColor"/></symbol>
  <symbol id="icon-instagram" viewBox="0 0 24 24"><path d="M12 2.163c3.204 0 3.584.012 4.85.07 3.252.148 4.771 1.691 4.919 4.919.058 1.265.069 1.645.069 4.849 0 3.205-.012 3.584-.069 4.849-.149 3.225-1.664 4.771-4.919 4.919-1.266.058-1.644.07-4.85.07-3.204 0-3.584-.012-4.849-.07-3.26-.149-4.771-1.699-4.919-4.92-.058-1.265-.07-1.644-.07-4.849 0-3.204.013-3.583.07-4.849.149-3.227 1.664-4.771 4.919-4.919 1.266-.057 1.645-.069 4.849-.069zM12 0C8.741 0 8.333.014 7.053.072 2.695.272.273 2.69.073 7.052.014 8.333 0 8.741 0 12c0 3.259.014 3.668.072 4.948.2 4.358 2.618 6.78 6.98 6.98C8.333 23.986 8.741 24 12 24c3.259 0 3.668-.014 4.948-.072 4.354-.2 6.782-2.618 6.979-6.98.059-1.28.073-1.689.073-4.948 0-3.259-.014-3.667-.072-4.947-.196-4.354-2.617-6.78-6.979-6.98C15.668.014 15.259 0 12 0zm0 5.838a6.162 6.162 0 1 0 0 12.324 6.162 6.162 0 0 0 0-12.324zM12 16a4 4 0 1 1 0-8 4 4 0 0 1 0 8zm6.406-11.845a1.44 1.44 0 1 0 0 2.881 1.44 1.44 0 0 0 0-2.881z" fill="currentColor"/></symbol>
  <symbol id="icon-x" viewBox="0 0 24 24"><path d="M18.244 2.25h3.308l-7.227 8.26 8.502 11.24H16.17l-5.214-6.817L4.99 21.75H1.68l7.73-8.835L1.254 2.25H8.08l4.713 6.231zm-1.161 17.52h1.833L7.084 4.126H5.117z" fill="currentColor"/></symbol>
  <symbol id="icon-facebook" viewBox="0 0 24 24"><path d="M14 8.6V6.8c0-.86.2-1.3 1.42-1.3H17V2.22A21.3 21.3 0 0 0 14.25 2C11.5 2 9.6 3.68 9.6 6.78V8.6H6.5V12h3.1v10H14V12h2.92l.46-3.4H14Z" fill="currentColor"/></symbol>
  <symbol id="icon-youtube" viewBox="0 0 24 24"><path d="M22.54 6.42a2.8 2.8 0 0 0-1.97-1.98C18.83 4 12 4 12 4s-6.83 0-8.57.44a2.8 2.8 0 0 0-1.97 1.98A29 29 0 0 0 1 12a29 29 0 0 0 .46 5.58 2.8 2.8 0 0 0 1.97 1.98C5.17 20 12 20 12 20s6.83 0 8.57-.44a2.8 2.8 0 0 0 1.97-1.98A29 29 0 0 0 23 12a29 29 0 0 0-.46-5.58ZM9.75 15.15v-6.3L15.5 12l-5.75 3.15Z" fill="currentColor"/></symbol>
</svg>
